<svg xmlns="http://www.w3.org/2000/svg" viewBox="0 0 900 560" role="img" aria-labelledby="title desc">
  <title id="title">Student computer setup</title>
  <desc id="desc">A mentor helps a student set up a donated laptop at a classroom desk.</desc>
  <defs>
    <linearGradient id="bg2" x1="0" y1="0" x2="1" y2="1">
      <stop offset="0%" stop-color="#e5f2f0"/>
      <stop offset="100%" stop-color="#f8e2be"/>
    </linearGradient>
  </defs>
  <rect width="900" height="560" fill="url(#bg2)"/>
  <rect x="80" y="70" width="740" height="420" rx="26" fill="#fff" stroke="#0e5561" stroke-opacity="0.22"/>
  <rect x="180" y="340" width="540" height="20" rx="10" fill="#0e5561"/>
  <rect x="320" y="245" width="220" height="100" rx="8" fill="#1d3136"/>
  <rect x="334" y="258" width="192" height="74" rx="5" fill="#8be3e3"/>
  <circle cx="245" cy="208" r="40" fill="#eab38a"/>
  <rect x="206" y="245" width="78" height="110" rx="13" fill="#a04b22"/>
  <rect x="199" y="312" width="92" height="94" rx="14" fill="#f4a340"/>
  <rect x="274" y="292" width="78" height="22" rx="10" fill="#eab38a"/>
  <circle cx="645" cy="208" r="40" fill="#f2c29a"/>
  <rect x="606" y="245" width="78" height="110" rx="13" fill="#0e5561"/>
  <rect x="598" y="312" width="94" height="94" rx="14" fill="#3d6f81"/>
  <rect x="548" y="288" width="76" height="22" rx="10" fill="#f2c29a"/>
  <rect x="395" y="377" width="70" height="60" rx="10" fill="#f3ecde" stroke="#0e5561" stroke-opacity="0.3"/>
  <text x="450" y="145" text-anchor="middle" font-size="34" font-family="Arial, sans-serif" fill="#0e5561" font-weight="700">Computer Setup and Coaching</text>
</svg>
