<svg xmlns="http://www.w3.org/2000/svg" viewBox="0 0 900 560" role="img" aria-labelledby="title desc">
  <title id="title">Laptop donation to family</title>
  <desc id="desc">A volunteer gives a laptop to a parent and child in a community center.</desc>
  <defs>
    <linearGradient id="bg" x1="0" y1="0" x2="1" y2="1">
      <stop offset="0%" stop-color="#f7e9cc"/>
      <stop offset="100%" stop-color="#dfeff2"/>
    </linearGradient>
  </defs>
  <rect width="900" height="560" fill="url(#bg)"/>
  <rect x="70" y="80" width="760" height="410" rx="24" fill="#fff" stroke="#0e5561" stroke-opacity="0.2"/>
  <rect x="430" y="250" width="200" height="120" rx="8" fill="#1b2f34"/>
  <rect x="442" y="262" width="176" height="88" rx="5" fill="#4fd2d2"/>
  <rect x="494" y="370" width="70" height="8" rx="4" fill="#0e5561"/>
  <circle cx="250" cy="205" r="42" fill="#f2c29a"/>
  <rect x="210" y="245" width="82" height="108" rx="14" fill="#0e5561"/>
  <rect x="204" y="312" width="95" height="92" rx="14" fill="#dd7f1f"/>
  <circle cx="350" cy="210" r="37" fill="#f2c29a"/>
  <rect x="318" y="245" width="66" height="104" rx="14" fill="#5b7c8f"/>
  <rect x="308" y="312" width="82" height="88" rx="14" fill="#f4a340"/>
  <rect x="276" y="288" width="80" height="24" rx="10" fill="#f2c29a"/>
  <circle cx="675" cy="210" r="42" fill="#f2c29a"/>
  <rect x="635" y="245" width="82" height="108" rx="14" fill="#3f8d7f"/>
  <rect x="630" y="312" width="94" height="92" rx="14" fill="#0e5561"/>
  <rect x="595" y="294" width="80" height="24" rx="10" fill="#f2c29a"/>
  <text x="450" y="146" text-anchor="middle" font-size="34" font-family="Arial, sans-serif" fill="#0e5561" font-weight="700">HDDF Laptop Donation Day</text>
</svg>
