<svg xmlns="http://www.w3.org/2000/svg" viewBox="0 0 1200 720" role="img" aria-labelledby="title desc">
  <title id="title">HDDF Donation Impact Artwork</title>
  <desc id="desc">An original illustration showing community learning, laptops, and donation impact.</desc>
  <defs>
    <linearGradient id="bg" x1="0" y1="0" x2="1" y2="1">
      <stop offset="0%" stop-color="#eef8f7"/>
      <stop offset="100%" stop-color="#f6e5c8"/>
    </linearGradient>
    <linearGradient id="screen" x1="0" y1="0" x2="1" y2="1">
      <stop offset="0%" stop-color="#9be8e1"/>
      <stop offset="100%" stop-color="#5dcfc4"/>
    </linearGradient>
  </defs>

  <rect width="1200" height="720" fill="url(#bg)"/>
  <circle cx="1030" cy="120" r="170" fill="#f4a340" opacity="0.18"/>
  <circle cx="140" cy="90" r="120" fill="#0e5561" opacity="0.08"/>

  <rect x="95" y="95" width="1010" height="530" rx="30" fill="#fffdf8" stroke="#0e5561" stroke-opacity="0.24" stroke-width="4"/>

  <rect x="230" y="390" width="740" height="18" rx="9" fill="#0e5561" opacity="0.9"/>

  <rect x="270" y="280" width="175" height="105" rx="10" fill="#0e5561"/>
  <rect x="286" y="296" width="143" height="72" rx="8" fill="url(#screen)"/>

  <rect x="510" y="280" width="175" height="105" rx="10" fill="#0e5561"/>
  <rect x="526" y="296" width="143" height="72" rx="8" fill="url(#screen)"/>

  <rect x="750" y="280" width="175" height="105" rx="10" fill="#0e5561"/>
  <rect x="766" y="296" width="143" height="72" rx="8" fill="url(#screen)"/>

  <circle cx="332" cy="225" r="30" fill="#efbe98"/>
  <rect x="302" y="252" width="60" height="98" rx="12" fill="#3f7990"/>

  <circle cx="595" cy="230" r="34" fill="#efbe98"/>
  <rect x="560" y="262" width="70" height="104" rx="12" fill="#a04b22"/>

  <circle cx="846" cy="225" r="30" fill="#efbe98"/>
  <rect x="816" y="252" width="60" height="98" rx="12" fill="#0e5561"/>

  <path d="M980 190c0-35 29-63 63-63s63 28 63 63c0 59-63 95-63 95s-63-36-63-95z" fill="#0e5561"/>
  <path d="M1043 169c12-14 34-4 34 14 0 14-12 24-34 41-22-17-34-27-34-41 0-18 22-28 34-14z" fill="#f4a340"/>

  <text x="600" y="182" text-anchor="middle" font-family="Arial, sans-serif" font-size="52" font-weight="700" fill="#0e5561">YOUR DONATION BUILDS FUTURES</text>
  <text x="600" y="540" text-anchor="middle" font-family="Arial, sans-serif" font-size="34" fill="#1f2c2f">LAPTOPS • LESSONS • MENTORSHIP • CAREER SUPPORT</text>
</svg>
