<svg xmlns="http://www.w3.org/2000/svg" viewBox="0 0 1200 720" role="img" aria-labelledby="title desc">
  <title id="title">Spring Laptop Drive Gala</title>
  <desc id="desc">Donated laptops stacked with a helping hand motif.</desc>
  <defs>
    <linearGradient id="bg" x1="0" y1="0" x2="1" y2="1">
      <stop offset="0%" stop-color="#f8efdb"/>
      <stop offset="100%" stop-color="#f2c98d"/>
    </linearGradient>
  </defs>
  <rect width="1200" height="720" fill="url(#bg)"/>
  <rect x="120" y="120" width="960" height="480" rx="30" fill="#fffdf8" stroke="#0e5561" stroke-opacity="0.3" stroke-width="4"/>
  <rect x="250" y="300" width="250" height="150" rx="12" fill="#0e5561"/>
  <rect x="270" y="320" width="210" height="100" rx="8" fill="#b6f0ea"/>
  <rect x="465" y="435" width="90" height="12" rx="6" fill="#083740"/>
  <rect x="470" y="270" width="250" height="150" rx="12" fill="#0e5561"/>
  <rect x="490" y="290" width="210" height="100" rx="8" fill="#b6f0ea"/>
  <rect x="685" y="405" width="90" height="12" rx="6" fill="#083740"/>
  <path d="M740 270 C790 220 860 240 885 295 C910 350 860 400 800 390 C760 384 715 360 705 330" fill="none" stroke="#dd7f1f" stroke-width="16" stroke-linecap="round"/>
  <text x="600" y="210" text-anchor="middle" font-family="Arial, sans-serif" font-size="52" font-weight="700" fill="#0e5561">SPRING LAPTOP DRIVE GALA</text>
  <text x="600" y="540" text-anchor="middle" font-family="Arial, sans-serif" font-size="34" fill="#1f2c2f">DONATE DEVICES. BUILD FUTURES.</text>
</svg>
