<svg xmlns="http://www.w3.org/2000/svg" viewBox="0 0 1200 720" role="img" aria-labelledby="title desc">
  <title id="title">Resume and Remote Work Clinic</title>
  <desc id="desc">Career clinic with resume sheet and digital job icons.</desc>
  <defs>
    <linearGradient id="bg" x1="0" y1="0" x2="1" y2="1">
      <stop offset="0%" stop-color="#e8eef7"/>
      <stop offset="100%" stop-color="#d9edf1"/>
    </linearGradient>
  </defs>
  <rect width="1200" height="720" fill="url(#bg)"/>
  <rect x="130" y="120" width="940" height="480" rx="30" fill="#ffffff" stroke="#0e5561" stroke-opacity="0.25" stroke-width="4"/>
  <rect x="230" y="180" width="350" height="360" rx="16" fill="#f8fbff" stroke="#083740" stroke-opacity="0.35"/>
  <rect x="270" y="230" width="180" height="16" rx="8" fill="#0e5561"/>
  <rect x="270" y="270" width="260" height="12" rx="6" fill="#7c9aa1"/>
  <rect x="270" y="300" width="230" height="12" rx="6" fill="#7c9aa1"/>
  <rect x="270" y="330" width="250" height="12" rx="6" fill="#7c9aa1"/>
  <rect x="270" y="380" width="200" height="12" rx="6" fill="#7c9aa1"/>
  <rect x="650" y="230" width="280" height="180" rx="16" fill="#0e5561"/>
  <circle cx="705" cy="280" r="24" fill="#f4a340"/>
  <rect x="745" y="266" width="150" height="16" rx="8" fill="#9bece6"/>
  <rect x="745" y="294" width="120" height="12" rx="6" fill="#9bece6"/>
  <rect x="650" y="435" width="280" height="90" rx="14" fill="#f4a340" opacity="0.9"/>
  <text x="600" y="190" text-anchor="middle" font-family="Arial, sans-serif" font-size="48" font-weight="700" fill="#0e5561">RESUME & REMOTE WORK CLINIC</text>
  <text x="600" y="570" text-anchor="middle" font-family="Arial, sans-serif" font-size="34" fill="#1f2c2f">BUILD YOUR PROFILE. APPLY WITH CONFIDENCE.</text>
</svg>
