<svg width="1600" height="900" viewBox="0 0 1600 900" fill="none" xmlns="http://www.w3.org/2000/svg">
  <defs>
    <linearGradient id="bg" x1="180" y1="40" x2="1450" y2="860" gradientUnits="userSpaceOnUse">
      <stop stop-color="#0E5561"/>
      <stop offset="1" stop-color="#083740"/>
    </linearGradient>
    <linearGradient id="panel" x1="820" y1="170" x2="1260" y2="780" gradientUnits="userSpaceOnUse">
      <stop stop-color="#FFFFFF" stop-opacity="0.98"/>
      <stop offset="1" stop-color="#EAF6F8" stop-opacity="0.95"/>
    </linearGradient>
    <linearGradient id="accent" x1="160" y1="640" x2="590" y2="350" gradientUnits="userSpaceOnUse">
      <stop stop-color="#F4A340"/>
      <stop offset="1" stop-color="#F7C36C"/>
    </linearGradient>
    <filter id="shadow" x="90" y="90" width="1420" height="760" filterUnits="userSpaceOnUse" color-interpolation-filters="sRGB">
      <feDropShadow dx="0" dy="20" stdDeviation="24" flood-color="#00171B" flood-opacity="0.22"/>
    </filter>
  </defs>

  <rect width="1600" height="900" rx="40" fill="url(#bg)"/>
  <g opacity="0.18">
    <circle cx="220" cy="170" r="110" fill="#F4A340"/>
    <circle cx="1450" cy="740" r="140" fill="#F4A340"/>
    <circle cx="1320" cy="140" r="70" fill="#F4A340"/>
  </g>

  <g filter="url(#shadow)">
    <rect x="120" y="120" width="1360" height="660" rx="34" fill="#0B4A55"/>
  </g>

  <rect x="840" y="180" width="560" height="540" rx="28" fill="url(#panel)"/>
  <rect x="900" y="250" width="440" height="70" rx="16" fill="#0E5561" opacity="0.1"/>
  <rect x="900" y="345" width="370" height="26" rx="13" fill="#0E5561" opacity="0.15"/>
  <rect x="900" y="390" width="420" height="26" rx="13" fill="#0E5561" opacity="0.12"/>
  <rect x="900" y="435" width="330" height="26" rx="13" fill="#0E5561" opacity="0.1"/>
  <rect x="900" y="500" width="200" height="64" rx="14" fill="#F4A340"/>
  <rect x="1120" y="500" width="220" height="64" rx="14" fill="#0E5561"/>
  <circle cx="1290" cy="620" r="46" fill="#0E5561" opacity="0.12"/>
  <path d="M1272 620L1285 633L1311 607" stroke="#0E5561" stroke-width="10" stroke-linecap="round" stroke-linejoin="round"/>

  <rect x="220" y="220" width="540" height="430" rx="28" fill="#F9FDFF"/>
  <rect x="245" y="245" width="490" height="305" rx="16" fill="#DCEEF2"/>
  <rect x="275" y="575" width="430" height="26" rx="13" fill="#0E5561" opacity="0.2"/>
  <rect x="330" y="630" width="320" height="20" rx="10" fill="#0E5561" opacity="0.14"/>

  <g transform="translate(285 278)">
    <circle cx="95" cy="100" r="54" fill="#F4A340"/>
    <rect x="55" y="160" width="80" height="104" rx="28" fill="#0E5561"/>
    <circle cx="245" cy="88" r="48" fill="#0E5561"/>
    <rect x="205" y="144" width="80" height="114" rx="28" fill="#F4A340"/>
    <circle cx="385" cy="108" r="50" fill="#1F2C2F"/>
    <rect x="344" y="164" width="84" height="106" rx="28" fill="#0E5561"/>
  </g>

  <path d="M200 705C342 645 474 645 620 705" stroke="url(#accent)" stroke-width="18" stroke-linecap="round"/>
  <text x="180" y="170" fill="#FFFFFF" font-family="League Spartan, Montserrat, sans-serif" font-size="86" font-weight="700">Bridging The Digital Gap</text>
  <text x="180" y="735" fill="#F8FBFC" font-family="Montserrat, sans-serif" font-size="36" font-weight="600">HDDF connects students and families with technology, training, and opportunity.</text>
</svg>
